<svg width="24" height="24" viewBox="0 0 24 24" fill="none" xmlns="http://www.w3.org/2000/svg">
<path d="M16.7401 4.54997C16.4259 4.25803 16.0093 4.10167 15.5807 4.11478C15.152 4.12788 14.7458 4.30939 14.4501 4.61997L4.45005 14.62L4.14005 19.48C4.13712 19.5267 4.14417 19.5735 4.16072 19.6173C4.17727 19.6611 4.20296 19.7009 4.23606 19.734C4.26916 19.7671 4.30893 19.7927 4.35272 19.8093C4.39651 19.8258 4.44333 19.8329 4.49005 19.83L9.35005 19.52L19.3501 9.51997C19.6606 9.22422 19.8421 8.818 19.8552 8.38934C19.8683 7.96068 19.712 7.54412 19.4201 7.22997L16.7401 4.54997Z" stroke="#151515" stroke-width="2.5" stroke-linecap="round" stroke-linejoin="round"/>
</svg>
