<svg width="24" height="24" viewBox="0 0 24 24" fill="none" xmlns="http://www.w3.org/2000/svg">
<path fill-rule="evenodd" clip-rule="evenodd" d="M13.3099 4.89009C14.2647 3.93532 15.5597 3.39893 16.91 3.39893C18.2602 3.39893 19.5552 3.93532 20.51 4.89009C21.4647 5.84487 22.0011 7.13983 22.0011 8.49009C22.0011 9.84036 21.4647 11.1353 20.51 12.0901L19.2 13.4001L11.9999 20.6001L4.79995 13.4001L3.48995 12.0901C2.53517 11.1353 1.99878 9.84036 1.99878 8.49009C1.99878 7.13983 2.53517 5.84487 3.48995 4.89009C4.44473 3.93532 5.73969 3.39893 7.08995 3.39893C8.44021 3.39893 9.73517 3.93532 10.6899 4.89009L11.9999 6.20009L13.3099 4.89009Z" stroke="#151515" stroke-width="1.5" stroke-linecap="round" stroke-linejoin="round"/>
</svg>
