<svg width="567" height="50" viewBox="0 0 567 50" fill="none" xmlns="http://www.w3.org/2000/svg">
<line x1="0.502208" y1="21.375" x2="566.502" y2="22.625" stroke="#A9A9A9" stroke-width="2"/>
<path d="M306.5 25C306.5 38.2937 296.164 49 283.5 49C270.836 49 260.5 38.2937 260.5 25C260.5 11.7063 270.836 1 283.5 1C296.164 1 306.5 11.7063 306.5 25Z" fill="white" stroke="#A9A9A9" stroke-width="2"/>
<path d="M279.292 28.662C278.332 28.662 277.468 28.452 276.7 28.032C275.932 27.6 275.326 26.994 274.882 26.214C274.45 25.434 274.234 24.534 274.234 23.514C274.234 22.494 274.456 21.594 274.9 20.814C275.356 20.034 275.974 19.434 276.754 19.014C277.534 18.582 278.404 18.366 279.364 18.366C280.324 18.366 281.194 18.582 281.974 19.014C282.754 19.434 283.366 20.034 283.81 20.814C284.266 21.594 284.494 22.494 284.494 23.514C284.494 24.534 284.26 25.434 283.792 26.214C283.336 26.994 282.712 27.6 281.92 28.032C281.14 28.452 280.264 28.662 279.292 28.662ZM279.292 26.466C279.748 26.466 280.174 26.358 280.57 26.142C280.978 25.914 281.302 25.578 281.542 25.134C281.782 24.69 281.902 24.15 281.902 23.514C281.902 22.566 281.65 21.84 281.146 21.336C280.654 20.82 280.048 20.562 279.328 20.562C278.608 20.562 278.002 20.82 277.51 21.336C277.03 21.84 276.79 22.566 276.79 23.514C276.79 24.462 277.024 25.194 277.492 25.71C277.972 26.214 278.572 26.466 279.292 26.466ZM288.863 20.076C289.187 19.548 289.607 19.134 290.123 18.834C290.651 18.534 291.251 18.384 291.923 18.384V21.03H291.257C290.465 21.03 289.865 21.216 289.457 21.588C289.061 21.96 288.863 22.608 288.863 23.532V28.5H286.343V18.528H288.863V20.076Z" fill="#575757"/>
</svg>
