<svg width="16" height="15" viewBox="0 0 16 15" fill="none" xmlns="http://www.w3.org/2000/svg">
<path fill-rule="evenodd" clip-rule="evenodd" d="M7.33348 1.62667C7.37953 1.48064 7.47094 1.35309 7.59442 1.26256C7.7179 1.17202 7.86703 1.12321 8.02015 1.12321C8.17327 1.12321 8.3224 1.17202 8.44588 1.26256C8.56936 1.35309 8.66077 1.48064 8.70682 1.62667L9.94682 5.44H13.9468C14.1054 5.43401 14.2616 5.48009 14.3915 5.57123C14.5215 5.66236 14.618 5.79352 14.6664 5.94468C14.7147 6.09583 14.7123 6.25867 14.6594 6.4083C14.6065 6.55794 14.5061 6.68615 14.3735 6.77333L11.1268 9.12667L12.3668 12.9467C12.4159 13.0922 12.4171 13.2496 12.3703 13.3958C12.3236 13.5421 12.2313 13.6696 12.107 13.7597C11.9826 13.8498 11.8327 13.8977 11.6792 13.8966C11.5256 13.8955 11.3765 13.8453 11.2535 13.7533L8.00015 11.3733L4.75348 13.7333C4.63049 13.8253 4.48133 13.8755 4.32778 13.8766C4.17423 13.8777 4.02434 13.8298 3.9 13.7397C3.77566 13.6496 3.68337 13.5221 3.63662 13.3758C3.58988 13.2296 3.59111 13.0722 3.64015 12.9267L4.88015 9.10667L1.63348 6.75333C1.50087 6.66615 1.40045 6.53794 1.34757 6.3883C1.29468 6.23867 1.29223 6.07583 1.3406 5.92468C1.38897 5.77352 1.4855 5.64236 1.61543 5.55123C1.74536 5.46009 1.90156 5.41401 2.06015 5.42H6.06015L7.33348 1.62667Z" stroke="#D1D1D1" stroke-linecap="round" stroke-linejoin="round"/>
</svg>
