<svg width="14" height="13" viewBox="0 0 14 13" fill="none" xmlns="http://www.w3.org/2000/svg">
<path fill-rule="evenodd" clip-rule="evenodd" d="M6.33349 0.626669C6.37953 0.48064 6.47094 0.353095 6.59442 0.262558C6.7179 0.172021 6.86703 0.123207 7.02015 0.123207C7.17327 0.123207 7.3224 0.172021 7.44588 0.262558C7.56936 0.353095 7.66077 0.48064 7.70682 0.626669L8.94682 4.44H12.9468C13.1054 4.43401 13.2616 4.48009 13.3915 4.57123C13.5215 4.66236 13.618 4.79352 13.6664 4.94468C13.7147 5.09583 13.7123 5.25867 13.6594 5.4083C13.6065 5.55794 13.5061 5.68615 13.3735 5.77333L10.1268 8.12667L11.3668 11.9467C11.4159 12.0922 11.4171 12.2496 11.3703 12.3958C11.3236 12.5421 11.2313 12.6696 11.107 12.7597C10.9826 12.8498 10.8327 12.8977 10.6792 12.8966C10.5256 12.8955 10.3765 12.8453 10.2535 12.7533L7.00015 10.3733L3.75348 12.7333C3.63049 12.8253 3.48133 12.8755 3.32778 12.8766C3.17423 12.8777 3.02434 12.8298 2.9 12.7397C2.77566 12.6496 2.68337 12.5221 2.63662 12.3758C2.58988 12.2296 2.59111 12.0722 2.64015 11.9267L3.88015 8.10667L0.633485 5.75333C0.500874 5.66615 0.400453 5.53794 0.347565 5.3883C0.294678 5.23867 0.292232 5.07583 0.340602 4.92468C0.388972 4.77352 0.485497 4.64236 0.61543 4.55123C0.745363 4.46009 0.901559 4.41401 1.06015 4.42H5.06015L6.33349 0.626669Z" fill="#FDBC15"/>
</svg>
