<svg width="24" height="24" viewBox="0 0 24 24" fill="none" xmlns="http://www.w3.org/2000/svg">
<path fill-rule="evenodd" clip-rule="evenodd" d="M13.3101 4.89009C14.2649 3.93532 15.5598 3.39893 16.9101 3.39893C18.2603 3.39893 19.5553 3.93532 20.5101 4.89009C21.4649 5.84487 22.0012 7.13983 22.0012 8.49009C22.0012 9.84036 21.4649 11.1353 20.5101 12.0901L19.2001 13.4001L12.0001 20.6001L4.80007 13.4001L3.49007 12.0901C2.53529 11.1353 1.9989 9.84036 1.9989 8.49009C1.9989 7.13983 2.53529 5.84487 3.49007 4.89009C4.44485 3.93532 5.73981 3.39893 7.09007 3.39893C8.44033 3.39893 9.73529 3.93532 10.6901 4.89009L12.0001 6.20009L13.3101 4.89009Z" fill="#FF5656" stroke="#FF5656" stroke-width="1.5" stroke-linecap="round" stroke-linejoin="round"/>
</svg>
